<svg xmlns="http://www.w3.org/2000/svg" viewBox="0 0 320 100" width="320" height="100">

  <!-- Icon box -->
  <rect x="0" y="8" width="84" height="84" rx="16" fill="#0a0f14"/>
  <rect x="0" y="8" width="84" height="84" rx="16" fill="none" stroke="#00d9ff" stroke-width="1.2" opacity="0.35"/>

  <!-- S inside icon -->
  <path d="M17 38 Q17 29 23 28 L33 28 Q41 28 41 34 Q41 40 33 42 L22 45 Q14 48 14 55 Q14 62 22 63 L33 63 Q41 63 41 69"
    fill="none" stroke="#00d9ff" stroke-width="4.5" stroke-linecap="round" stroke-linejoin="round"/>

  <!-- F vertical -->
  <line x1="37" y1="28" x2="37" y2="69" stroke="#00d9ff" stroke-width="4.5" stroke-linecap="round"/>
  <!-- F top bar -->
  <line x1="37" y1="28" x2="57" y2="28" stroke="#00d9ff" stroke-width="4.5" stroke-linecap="round"/>
  <!-- F mid bar -->
  <line x1="37" y1="48" x2="54" y2="48" stroke="#00d9ff" stroke-width="4.5" stroke-linecap="round"/>

  <!-- Divider line -->
  <line x1="100" y1="18" x2="100" y2="82" stroke="#00d9ff" stroke-width="0.8" opacity="0.25"/>

  <!-- Name -->
  <text x="116" y="52"
    font-family="'Segoe UI', 'Helvetica Neue', Arial, sans-serif"
    font-size="24" font-weight="700" letter-spacing="2"
    fill="#00d9ff">Sana Farooq</text>

  <!-- Tagline -->
  <text x="118" y="70"
    font-family="'Segoe UI', 'Helvetica Neue', Arial, sans-serif"
    font-size="11" font-weight="400" letter-spacing="3.5"
    fill="#00d9ff" opacity="0.5">WEB DEVELOPER</text>

</svg>
